<?xml version="1.0" encoding="UTF-8" standalone="no"?>
<!-- Created by Mayeul Cantan with Inkscape (http://www.inkscape.org/) -->

<svg
   xmlns:dc="http://purl.org/dc/elements/1.1/"
   xmlns:cc="http://creativecommons.org/ns#"
   xmlns:rdf="http://www.w3.org/1999/02/22-rdf-syntax-ns#"
   xmlns:svg="http://www.w3.org/2000/svg"
   xmlns="http://www.w3.org/2000/svg"
   xmlns:sodipodi="http://sodipodi.sourceforge.net/DTD/sodipodi-0.dtd"
   xmlns:inkscape="http://www.inkscape.org/namespaces/inkscape"
   width="154.79396mm"
   height="156.91815mm"
   viewBox="0 0 548.48254 556.0092"
   id="svg4203"
   version="1.1"
   inkscape:version="0.92.2 (5c3e80d, 2017-08-06)"
   sodipodi:docname="calendrier-mayeul-fat.svg"
   inkscape:export-filename="/home/galileo/Downloads/logo/export.png"
   inkscape:export-xdpi="600.04401"
   inkscape:export-ydpi="600.04401">
  <defs
     id="defs4205" />
  <sodipodi:namedview
     id="base"
     pagecolor="#ffffff"
     bordercolor="#666666"
     borderopacity="1.0"
     inkscape:pageopacity="0.0"
     inkscape:pageshadow="2"
     inkscape:zoom="1.7766865"
     inkscape:cx="356.20956"
     inkscape:cy="394.88088"
     inkscape:document-units="px"
     inkscape:current-layer="layer2"
     showgrid="false"
     inkscape:window-width="1920"
     inkscape:window-height="1137"
     inkscape:window-x="-8"
     inkscape:window-y="-8"
     inkscape:window-maximized="1"
     fit-margin-top="0"
     fit-margin-left="0"
     fit-margin-right="0"
     fit-margin-bottom="0" />
  <metadata
     id="metadata4208">
    <rdf:RDF>
      <cc:Work
         rdf:about="">
        <dc:format>image/svg+xml</dc:format>
        <dc:type
           rdf:resource="http://purl.org/dc/dcmitype/StillImage" />
        <dc:title></dc:title>
      </cc:Work>
    </rdf:RDF>
  </metadata>
  <g
     inkscape:groupmode="layer"
     id="layer2"
     inkscape:label="fond"
     style="display:inline">
    <path
       style="fill:none;fill-rule:evenodd;stroke:#000000;stroke-width:12.04724407;stroke-linecap:butt;stroke-linejoin:miter;stroke-miterlimit:4;stroke-dasharray:none;stroke-opacity:1"
       d="m 210.67671,217.18587 c 110.28254,-37.99207 33.39818,-37.59017 148.16589,0.4019"
       id="path4836"
       inkscape:connector-curvature="0"
       sodipodi:nodetypes="cc" />
  </g>
  <g
     inkscape:groupmode="layer"
     id="layer4"
     inkscape:label="fusee"
     transform="translate(-298.13873,-120.28768)"
     style="display:inline">
    <path
       style="fill:#de4b17;fill-opacity:1;stroke:#000000;stroke-width:7.08661424;stroke-miterlimit:4;stroke-dasharray:none;stroke-opacity:1"
       d="m 509.87078,334.30754 c 0.0941,7.74806 -0.001,15.64351 1.38859,23.27929 2.26736,2.86669 6.64534,2.72185 9.91407,3.66339 8.77528,1.73073 18.04906,0.46436 26.21889,-3.01539 0.81643,-7.89534 0.68995,-15.92686 1.08562,-23.87351 -4.16131,0.14817 -8.66022,2.07299 -13.08475,2.32827 -8.49859,1.19031 -16.77678,-1.84074 -25.13291,-2.69095 -0.17391,0.018 -0.35534,0.12351 -0.38951,0.3089 z"
       id="path4307"
       inkscape:connector-curvature="0" />
    <path
       style="fill:#ffffff;fill-opacity:1;stroke:#000000;stroke-width:7.08661424;stroke-miterlimit:4;stroke-dasharray:none;stroke-opacity:1"
       d="m 510.31796,357.83785 c -1.18584,7.78455 0.16874,15.82995 0.41816,23.68625 5.67344,4.47507 12.62949,7.37208 19.68014,7.01786 6.30213,-0.006 12.76726,-0.93272 18.54935,-3.69464 1.21415,-8.56037 1.26761,-17.54001 2.25819,-26.10118 -1.86235,-2.02573 -4.97677,0.0819 -7.1881,0.17146 -10.40021,3.23506 -21.35513,1.51758 -31.64138,-1.45235 -0.67588,-0.0734 -1.72666,-0.61906 -2.07636,0.3726 z"
       id="path4990"
       inkscape:connector-curvature="0" />
    <path
       style="fill:#ffffff;fill-opacity:1;stroke:#000000;stroke-width:7.08661424;stroke-miterlimit:4;stroke-dasharray:none;stroke-opacity:1"
       d="m 548.75224,335.57242 c -1.30732,7.44122 -1.5979,15.11426 -1.35991,22.66241 1.12516,3.4537 5.57877,4.04168 8.60486,4.97805 9.97942,2.12513 20.50481,1.7246 30.18699,-1.59106 0.9925,-4.96283 -0.003,-10.43225 -0.2384,-15.57802 -0.54935,-3.64475 -0.29367,-7.70676 -1.66015,-11.08422 -4.55151,-0.14164 -8.93376,2.11818 -13.55038,2.07601 -7.28004,0.74195 -14.41894,-1.60517 -21.64598,-1.83101 -0.16342,0.0623 -0.2772,0.20887 -0.33702,0.36785 z"
       id="path4996"
       inkscape:connector-curvature="0" />
    <path
       style="fill:#de4b17;fill-opacity:1;stroke:#000000;stroke-width:7.08661424;stroke-miterlimit:4;stroke-dasharray:none;stroke-opacity:1"
       d="m 547.57702,361.56804 c 0.0941,7.74805 -10e-4,15.64351 1.38859,23.27928 2.26734,2.8667 6.64534,2.72186 9.91406,3.6634 8.77528,1.73074 18.04907,0.46436 26.21889,-3.01539 0.81644,-7.89534 0.68996,-15.92687 1.08562,-23.87351 -4.16131,0.14818 -8.66021,2.07299 -13.08476,2.32827 -8.49858,1.19031 -16.77676,-1.84073 -25.13289,-2.69096 -0.17392,0.018 -0.35534,0.12353 -0.38951,0.30891 z"
       id="path4307-3"
       inkscape:connector-curvature="0" />
    <path
       style="fill:#de4b17;fill-opacity:1;stroke:#000000;stroke-width:7.08661424;stroke-miterlimit:4;stroke-dasharray:none;stroke-opacity:1"
       d="m 584.28563,334.95958 c 0.0941,7.74806 -10e-4,15.64351 1.38858,23.27929 2.26736,2.8667 6.64535,2.72185 9.91407,3.66339 8.77528,1.73074 18.04907,0.46437 26.21889,-3.01539 0.81643,-7.89533 0.68996,-15.92686 1.08563,-23.8735 -4.16132,0.14817 -8.66022,2.07298 -13.08476,2.32827 -8.49859,1.1903 -16.77677,-1.84074 -25.1329,-2.69095 -0.17392,0.018 -0.35534,0.12351 -0.38951,0.30889 z"
       id="path4307-9"
       inkscape:connector-curvature="0" />
    <path
       style="fill:#ffffff;fill-opacity:1;stroke:#000000;stroke-width:7.08661424;stroke-miterlimit:4;stroke-dasharray:none;stroke-opacity:1"
       d="m 585.3372,358.60671 c -1.30733,7.44123 -1.5979,15.11427 -1.35992,22.66241 1.12517,3.45371 5.57878,4.04169 8.60487,4.97806 9.97942,2.12513 20.50481,1.7246 30.18699,-1.59106 0.99249,-4.96283 -0.003,-10.43225 -0.23841,-15.57803 -0.54935,-3.64474 -0.29366,-7.70675 -1.66013,-11.08421 -4.55152,-0.14164 -8.93377,2.11818 -13.5504,2.07601 -7.28003,0.74195 -14.41893,-1.60518 -21.64599,-1.83102 -0.1634,0.0623 -0.27719,0.20887 -0.337,0.36785 z"
       id="path4996-8"
       inkscape:connector-curvature="0" />
    <path
       style="fill:#de4b17;fill-opacity:1;stroke:#000000;stroke-width:7.08661424;stroke-miterlimit:4;stroke-dasharray:none;stroke-opacity:1"
       d="m 510.08414,383.58244 c 0.0941,7.74807 -10e-4,15.64351 1.3886,23.27929 2.26735,2.8667 6.64533,2.72185 9.91405,3.66339 8.77529,1.73074 18.04907,0.46437 26.21889,-3.01539 0.81644,-7.89534 0.68997,-15.92686 1.08563,-23.8735 -4.16132,0.14817 -8.66021,2.07299 -13.08475,2.32827 -8.49859,1.19031 -16.77678,-1.84074 -25.1329,-2.69096 -0.17392,0.018 -0.35534,0.12353 -0.38952,0.3089 z"
       id="path4307-0"
       inkscape:connector-curvature="0" />
    <path
       style="fill:#ffffff;fill-opacity:1;stroke:#000000;stroke-width:7.08661424;stroke-miterlimit:4;stroke-dasharray:none;stroke-opacity:1"
       d="m 510.53133,407.11276 c -1.18585,7.78455 0.16873,15.82993 0.41816,23.68625 5.67343,4.47506 12.62947,7.37207 19.68013,7.01785 6.30213,-0.006 12.76726,-0.93272 18.54935,-3.69463 1.21415,-8.56037 1.26761,-17.54002 2.2582,-26.10118 -1.86235,-2.02573 -4.97677,0.0819 -7.1881,0.17146 -10.40021,3.23506 -21.35515,1.51757 -31.64139,-1.45235 -0.67588,-0.0734 -1.72667,-0.61907 -2.07635,0.3726 z"
       id="path4990-3"
       inkscape:connector-curvature="0" />
    <path
       style="fill:#ffffff;fill-opacity:1;stroke:#000000;stroke-width:7.08661424;stroke-miterlimit:4;stroke-dasharray:none;stroke-opacity:1"
       d="m 548.96561,384.84732 c -1.30733,7.44123 -1.5979,15.11427 -1.35993,22.66241 1.12518,3.4537 5.57879,4.04169 8.60488,4.97807 9.97942,2.12512 20.50481,1.72458 30.18698,-1.59107 0.9925,-4.96283 -0.003,-10.43225 -0.2384,-15.57802 -0.54935,-3.64476 -0.29367,-7.70676 -1.66014,-11.08423 -4.55152,-0.14163 -8.93377,2.11819 -13.55038,2.07602 -7.28004,0.74196 -14.41894,-1.60518 -21.64599,-1.83101 -0.16342,0.0623 -0.27721,0.20886 -0.33701,0.36784 z"
       id="path4996-3"
       inkscape:connector-curvature="0" />
    <path
       style="fill:#de4b17;fill-opacity:1;stroke:#000000;stroke-width:7.08661424;stroke-miterlimit:4;stroke-dasharray:none;stroke-opacity:1"
       d="m 547.79039,410.84294 c 0.0941,7.74807 -10e-4,15.64352 1.38858,23.27929 2.26735,2.8667 6.64534,2.72186 9.91407,3.66339 8.77528,1.73075 18.04907,0.46438 26.21888,-3.01538 0.81644,-7.89534 0.68996,-15.92687 1.08562,-23.87351 -4.16131,0.14818 -8.66021,2.07298 -13.08475,2.32828 -8.49859,1.1903 -16.77677,-1.84074 -25.13289,-2.69096 -0.1739,0.018 -0.35535,0.12352 -0.38951,0.30889 z"
       id="path4307-3-7"
       inkscape:connector-curvature="0" />
    <path
       style="fill:#de4b17;fill-opacity:1;stroke:#000000;stroke-width:7.08661424;stroke-miterlimit:4;stroke-dasharray:none;stroke-opacity:1"
       d="m 584.499,384.23448 c 0.0941,7.74807 -10e-4,15.64352 1.38858,23.27929 2.26735,2.8667 6.64534,2.72186 9.91406,3.6634 8.77528,1.73074 18.04906,0.46437 26.21889,-3.01539 0.81643,-7.89534 0.68996,-15.92687 1.08563,-23.8735 -4.16132,0.14818 -8.66022,2.07298 -13.08477,2.32827 -8.49858,1.1903 -16.77676,-1.84074 -25.13289,-2.69096 -0.17392,0.018 -0.35534,0.12352 -0.3895,0.30889 z"
       id="path4307-9-2"
       inkscape:connector-curvature="0" />
    <path
       style="fill:#ffffff;fill-opacity:1;stroke:#000000;stroke-width:7.08661424;stroke-miterlimit:4;stroke-dasharray:none;stroke-opacity:1"
       d="m 585.55057,407.88162 c -1.30733,7.44123 -1.5979,15.11426 -1.35993,22.66241 1.12517,3.4537 5.57878,4.04169 8.60487,4.97806 9.97941,2.12512 20.50482,1.72459 30.18697,-1.59105 0.99251,-4.96285 -0.003,-10.43227 -0.23839,-15.57804 -0.54936,-3.64474 -0.29367,-7.70676 -1.66014,-11.08422 -4.55152,-0.14163 -8.93378,2.11819 -13.55038,2.07602 -7.28004,0.74195 -14.41894,-1.60518 -21.64599,-1.83103 -0.16342,0.0623 -0.2772,0.20888 -0.33701,0.36785 z"
       id="path4996-8-7"
       inkscape:connector-curvature="0" />
    <path
       style="fill:#ffffff;fill-opacity:1;stroke:#000000;stroke-width:7.08661424;stroke-miterlimit:4;stroke-dasharray:none;stroke-opacity:1"
       d="m 622.8928,335.01337 c -1.30733,7.44123 -1.59791,15.11426 -1.35992,22.66241 1.12516,3.45371 5.57877,4.04168 8.60485,4.97806 9.97943,2.12512 20.50482,1.72459 30.187,-1.59106 0.99249,-4.96284 -0.003,-10.43226 -0.2384,-15.57803 -0.54936,-3.64475 -0.29367,-7.70676 -1.66015,-11.08421 -4.55151,-0.14164 -8.93376,2.11817 -13.55039,2.076 -7.28003,0.74196 -14.41893,-1.60518 -21.64598,-1.83101 -0.16342,0.0623 -0.2772,0.20887 -0.337,0.36784 z"
       id="path4996-83"
       inkscape:connector-curvature="0" />
    <path
       style="fill:#de4b17;fill-opacity:1;stroke:#000000;stroke-width:7.08661424;stroke-miterlimit:4;stroke-dasharray:none;stroke-opacity:1"
       d="m 621.71758,361.00899 c 0.0941,7.74806 -10e-4,15.64351 1.38858,23.27929 2.26734,2.86669 6.64533,2.72185 9.91406,3.66339 8.77528,1.73074 18.04906,0.46437 26.21889,-3.01539 0.81644,-7.89534 0.68996,-15.92687 1.08562,-23.8735 -4.16131,0.14817 -8.66021,2.07298 -13.08476,2.32827 -8.49858,1.1903 -16.77676,-1.84074 -25.1329,-2.69096 -0.17391,0.018 -0.35533,0.12352 -0.38949,0.3089 z"
       id="path4307-3-8"
       inkscape:connector-curvature="0" />
    <path
       style="fill:#ffffff;fill-opacity:1;stroke:#000000;stroke-width:7.08661424;stroke-miterlimit:4;stroke-dasharray:none;stroke-opacity:1"
       d="m 623.10616,384.28828 c -1.30733,7.44123 -1.59789,15.11426 -1.35993,22.66241 1.12517,3.4537 5.57878,4.04169 8.60487,4.97806 9.97942,2.12512 20.50481,1.72458 30.18699,-1.59106 0.99249,-4.96284 -0.003,-10.43226 -0.2384,-15.57803 -0.54936,-3.64475 -0.29367,-7.70676 -1.66014,-11.08422 -4.55152,-0.14163 -8.93377,2.11818 -13.55039,2.07602 -7.28003,0.74195 -14.41894,-1.60519 -21.64598,-1.83103 -0.16342,0.0623 -0.27721,0.20887 -0.33701,0.36785 z"
       id="path4996-3-2"
       inkscape:connector-curvature="0" />
    <path
       style="fill:#de4b17;fill-opacity:1;stroke:#000000;stroke-width:7.08661424;stroke-miterlimit:4;stroke-dasharray:none;stroke-opacity:1"
       d="m 621.93094,410.2839 c 0.0941,7.74806 -10e-4,15.6435 1.38859,23.27929 2.26734,2.86671 6.64532,2.72185 9.91407,3.66339 8.77527,1.73074 18.04904,0.46437 26.21887,-3.01539 0.81644,-7.89534 0.68996,-15.92687 1.08562,-23.8735 -4.16131,0.14817 -8.66021,2.07297 -13.08475,2.32827 -8.49858,1.19029 -16.77677,-1.84075 -25.1329,-2.69096 -0.1739,0.018 -0.35533,0.12351 -0.3895,0.3089 z"
       id="path4307-3-7-8"
       inkscape:connector-curvature="0" />
  </g>
  <g
     inkscape:groupmode="layer"
     id="layer3"
     inkscape:label="trainee"
     style="display:inline">
    <path
       sodipodi:nodetypes="ccccc"
       inkscape:connector-curvature="0"
       id="path4740-8"
       d="m 386.3267,242.53701 c -110.8332,73.98898 -209.50627,115.08906 -177.45436,42.9326 l -0.23055,-15.09594 c -58.54247,116.42794 94.82547,47.65141 178.70505,-10.29812 z"
       style="display:inline;fill:#eacc29;fill-opacity:0.99990133;fill-rule:evenodd;stroke:#000000;stroke-width:0.93897647;stroke-linecap:butt;stroke-linejoin:miter;stroke-miterlimit:4;stroke-dasharray:none;stroke-opacity:1" />
  </g>
</svg>
